HIERARCHY
ROOT Hip
{
  OFFSET 0.0 0.0 0.0
  CHANNELS 6 Xposition Yposition Zposition Xrotation Yrotation Zrotation
  JOINT LowerSpine
  {
    OFFSET 0.0 0.061367 -0.03653
    CHANNELS 3 Xrotation Yrotation Zrotation
    JOINT MiddleSpine
    {
      OFFSET 0.0 0.056002 0.002633
      CHANNELS 3 Xrotation Yrotation Zrotation
      JOINT Chest
      {
        OFFSET 0.0 0.069296 -0.013882
        CHANNELS 3 Xrotation Yrotation Zrotation
        JOINT Neck
        {
          OFFSET 0.0 0.156156 -0.002923
          CHANNELS 3 Xrotation Yrotation Zrotation
          JOINT Head
          {
            OFFSET 0.0 0.088183 0.023986
            CHANNELS 3 Xrotation Yrotation Zrotation
            End Site
            {
              OFFSET 1e-06 0.123215 0.003678
            }
          }
        }
        JOINT LClavicle
        {
          OFFSET 0.014189 0.150698 0.046467
          CHANNELS 3 Xrotation Yrotation Zrotation
          JOINT LShoulder
          {
            OFFSET 0.082893 0.021616 -0.034976
            CHANNELS 3 Xrotation Yrotation Zrotation
            JOINT LForearm
            {
              OFFSET 0.195645 -0.000695 -0.001695
              CHANNELS 3 Xrotation Yrotation Zrotation
              JOINT LHand
              {
                OFFSET 0.163209 0.000474 -0.000977
                CHANNELS 3 Xrotation Yrotation Zrotation
                End Site
                {
                  OFFSET 0.0 0.006864 0.0
                }
              }
            }
          }
        }
        JOINT RClavicle
        {
          OFFSET -0.014189 0.150698 0.046467
          CHANNELS 3 Xrotation Yrotation Zrotation
          JOINT RShoulder
          {
            OFFSET -0.082908 0.021619 -0.034982
            CHANNELS 3 Xrotation Yrotation Zrotation
            JOINT RForearm
            {
              OFFSET -0.195645 -0.000695 -0.001695
              CHANNELS 3 Xrotation Yrotation Zrotation
              JOINT RHand
              {
                OFFSET -0.163209 0.000474 -0.000977
                CHANNELS 3 Xrotation Yrotation Zrotation
                End Site
                {
                  OFFSET 0.0 0.006864 0.0
                }
              }
            }
          }
        }
      }
    }
  }
  JOINT RThigh
  {
    OFFSET -0.072558 0.02774 -0.005953
    CHANNELS 3 Xrotation Yrotation Zrotation
    JOINT RShin
    {
      OFFSET -0.005253 -0.285537 0.0
      CHANNELS 3 Xrotation Yrotation Zrotation
      JOINT RFoot
      {
        OFFSET 0.0 -0.28038 0.0
        CHANNELS 3 Xrotation Yrotation Zrotation
        JOINT RToe
        {
          OFFSET 0.0 -0.030816 0.064441
          CHANNELS 3 Xrotation Yrotation Zrotation
          End Site
          {
            OFFSET 0.0 0.0 0.043231
          }
        }
      }
    }
  }
  JOINT LThigh
  {
    OFFSET 0.072557 0.027741 -0.005953
    CHANNELS 3 Xrotation Yrotation Zrotation
    JOINT LShin
    {
      OFFSET 0.005253 -0.285539 0.0
      CHANNELS 3 Xrotation Yrotation Zrotation
      JOINT LFoot
      {
        OFFSET 0.0 -0.28038 0.0
        CHANNELS 3 Xrotation Yrotation Zrotation
        JOINT LToe
        {
          OFFSET 0.0 -0.030816 0.064441
          CHANNELS 3 Xrotation Yrotation Zrotation
          End Site
          {
            OFFSET 0.0 0.0 0.043231
          }
        }
      }
    }
  }
}
MOTION
Frames: 9
Frame Time: 0.03333333333333333
0.158226 0.565393 1.64492 11.972248 -46.062149 5.300698 -0.358146 -0.339384 -0.23246 -1.555162 -1.282526 1.296152 -8.1457 -9.540287 4.373096 -0.687188 0.104388 -0.272289 0.00941 -0.038792 -0.007204 0.82601 0.764208 -14.983784 14.425829 -34.326191 -57.305542 8.719586 -24.561798 -0.841115 0.017989 0.045983 -0.011973 0.273175 -0.114783 12.626026 24.018858 23.688753 57.347538 5.797239 16.497959 2.568123 0.060401 -0.123361 -0.00032 -11.700648 -14.069242 6.755922 7.51691 -7.502544 1.17666 -0.715027 1.873933 0.334578 0.022614 0.148478 0.055746 -9.974489 -3.412749 2.386992 25.546165 0.602839 0.488222 -1.298189 0.528868 0.471493 -0.174495 0.039998 0.027932 
0.148953 0.557225 1.649029 12.308073 -47.075546 5.844855 -0.278606 -0.315817 -0.205424 -1.494797 -1.199113 1.290823 -8.112944 -9.056588 4.318394 -0.717257 0.09797 -0.264345 0.01183 -0.036325 -0.007845 0.833983 0.751984 -14.998182 15.083044 -33.996578 -57.614483 9.545234 -23.500925 -0.976046 0.019618 0.048838 -0.012984 0.304413 -0.073982 12.616118 23.287182 25.531801 57.335407 5.064507 15.470174 2.53706 0.060358 -0.13576 -0.001706 -9.523532 -13.968683 7.242658 6.560482 -7.428084 1.212148 -1.139247 1.895929 0.363441 0.016736 0.14755 0.059955 -12.182824 -4.357454 2.970105 30.133749 0.120549 0.634395 -1.128185 0.543199 0.441467 -0.145438 0.038741 0.023639 
0.138151 0.558301 1.662017 11.901247 -46.591587 6.197327 -0.243159 -0.292404 -0.184072 -1.381491 -1.007129 1.228035 -8.364245 -8.275704 3.928068 -0.815727 0.093081 -0.217675 0.016197 -0.016978 -0.006695 0.761351 0.662771 -14.903222 16.352833 -34.173832 -57.607147 10.891295 -21.882759 -1.37862 0.019867 0.050567 -0.012116 0.290491 0.152674 12.52021 23.154367 27.91078 56.856083 4.674068 15.156298 2.492261 0.080468 -0.151918 0.000467 -7.596963 -13.440746 6.947327 5.505239 -7.113004 1.373464 -1.556901 1.920916 0.394382 0.020007 0.14574 0.060491 -15.192495 -5.111022 2.902977 33.721378 -0.458276 0.587709 -0.97761 0.502619 0.372096 -0.111488 0.039076 0.024817 
0.125692 0.560002 1.672204 11.209688 -45.904221 6.543701 -0.256618 -0.236242 -0.154047 -1.227537 -0.741626 1.089479 -8.739335 -7.361487 3.182195 -0.9008 0.092691 -0.146773 0.022982 0.015228 -0.00076 0.658542 0.589944 -14.777186 17.626255 -34.57494 -57.88345 11.872913 -19.835939 -1.810781 0.021795 0.053349 -0.013171 0.294213 0.365102 12.480803 22.774437 30.318459 56.304237 4.283466 15.330951 2.492623 0.113166 -0.175257 0.002785 -5.680254 -11.682655 6.250871 4.864856 -6.359338 1.544533 -2.034826 1.885855 0.394315 0.020906 0.149784 0.060197 -18.710432 -5.494263 2.074981 34.765137 -1.032075 0.54263 -0.909862 0.457187 0.320489 -0.066467 0.035739 0.023141 
0.113555 0.561504 1.682157 10.468374 -48.989777 6.864676 -0.286926 -0.168072 -0.092889 -1.144364 -0.558362 0.962083 -8.381573 -6.363292 2.778864 -0.893048 0.136471 -0.109372 0.022628 0.014492 0.012241 0.495493 0.542756 -14.794409 18.326645 -33.821476 -59.213142 10.824082 -17.875977 -2.026483 0.020796 0.045619 -0.011949 0.279477 0.5832 12.523781 21.443428 30.725641 55.205097 4.182468 16.513071 2.355925 0.115 -0.188775 0.00092 -3.363192 -9.454394 5.8092 4.302844 -5.578241 1.613048 -2.072341 1.888982 0.406055 -0.014005 0.150098 0.06425 -19.37776 -5.18444 0.950152 32.225498 -1.654706 0.667834 -1.070913 0.54194 0.37115 -0.039147 0.024628 0.009208 
0.103069 0.56155 1.685284 10.892501 -53.269932 8.978518 -0.320137 -0.108996 3.8e-05 -1.165971 -0.417859 0.915015 -8.356693 -5.193086 2.66595 -0.829716 0.190598 -0.129033 0.021313 0.005887 0.025531 0.3512 0.373256 -14.835371 18.596819 -31.67671 -61.021641 9.134818 -16.902327 -2.263852 0.026527 0.056425 -0.024942 0.326386 0.63952 12.531319 20.074884 29.594646 55.35672 2.702783 17.513693 2.232198 0.108064 -0.19886 -0.003298 -2.20507 -7.388122 5.244051 4.119955 -4.843258 1.63293 -2.388709 1.834572 0.367434 -0.055745 0.18157 0.070754 -21.19459 -4.776951 -0.785524 28.522058 -2.421633 1.191519 -1.207591 0.596489 0.428166 -0.007281 -0.003784 -0.010975 
0.099603 0.559577 1.682824 11.493526 -55.652969 10.738962 -0.298416 -0.088938 0.037794 -1.35283 -0.386674 0.900729 -8.39441 -4.416116 2.793177 -0.679419 0.271676 -0.187645 0.018248 -0.012225 0.029845 0.254235 0.159338 -14.789894 19.125425 -29.884968 -62.142673 7.896152 -17.370041 -2.531655 0.041002 0.091269 -0.048785 0.400336 0.471572 12.489631 18.922802 28.09478 56.144348 1.19511 18.411285 2.113149 0.090561 -0.208344 -0.00943 -2.956776 -6.019658 4.514626 5.381746 -4.492634 1.755356 -2.762725 1.709941 0.275353 -0.113575 0.212044 0.06575 -24.518505 -4.039981 -2.60646 23.983912 -2.927481 1.756516 -1.33478 0.611927 0.481044 0.01472 -0.047708 -0.034092 
0.086963 0.557127 1.681318 16.487972 -60.741161 16.421049 -0.37742 -0.110236 0.084635 -1.539695 -0.315746 0.918904 -8.39325 -2.982052 3.061345 -0.628978 0.347318 -0.237622 0.018683 -0.018114 0.047744 0.344063 0.168554 -14.730209 20.769632 -26.963902 -62.143597 7.208563 -18.338999 -2.394783 0.051016 0.113154 -0.059179 0.46686 -0.227342 12.876604 17.916946 27.433523 56.27528 0.815025 19.605547 1.795376 0.082389 -0.204288 -0.010016 -3.074247 -5.07894 4.517183 6.655485 -4.390455 1.959826 -2.924485 1.522485 0.161845 -0.183723 0.256824 0.068191 -28.027514 -3.437152 -3.569003 20.464785 -2.745735 2.030628 -1.183021 0.578355 0.476073 0.031612 -0.074453 -0.049987 
0.069885 0.555703 1.681157 22.539648 -65.298927 23.239878 -0.497432 -0.124971 0.138596 -1.666865 -0.230994 0.922507 -8.154315 -1.826515 3.044422 -0.569547 0.390987 -0.271361 0.018727 -0.02386 0.068037 0.394177 0.260613 -14.626857 22.244236 -24.744377 -61.987381 7.269974 -19.336256 -2.123841 0.053321 0.114485 -0.054857 0.479619 -0.735916 13.262677 17.418402 27.224796 55.926311 0.964378 21.028849 1.834309 0.061981 -0.181921 -0.009481 -2.767147 -4.686178 4.430117 7.955033 -4.395223 2.08101 -2.890815 1.366417 0.093092 -0.233043 0.258496 0.066417 -29.358093 -3.065475 -3.994983 17.411465 -2.383723 2.118503 -0.880678 0.511314 0.439904 0.044709 -0.081048 -0.053705 
